0
SECTION
2
HEADER
9
$INSUNITS
70
4
0
ENDSEC
0
SECTION
2
ENTITIES
0
CIRCLE
8
0
10
0
20
0
40
100
0
CIRCLE
8
0
10
0
20
0
40
40
0
CIRCLE
8
0
10
75
20
0
40
5
0
CIRCLE
8
0
10
53.033008588991066
20
53.03300858899106
40
5
0
CIRCLE
8
0
10
4.592425496802574e-15
20
75
40
5
0
CIRCLE
8
0
10
-53.03300858899106
20
53.033008588991066
40
5
0
CIRCLE
8
0
10
-75
20
9.184850993605149e-15
40
5
0
CIRCLE
8
0
10
-53.03300858899107
20
-53.03300858899106
40
5
0
CIRCLE
8
0
10
-1.3777276490407723e-14
20
-75
40
5
0
CIRCLE
8
0
10
53.03300858899105
20
-53.03300858899107
40
5
0
ENDSEC
0
EOF
