0
SECTION
2
HEADER
9
$INSUNITS
70
4
0
ENDSEC
0
SECTION
2
ENTITIES
0
LINE
8
0
10
0
20
0
11
200
21
0
0
LINE
8
0
10
200
20
0
11
200
21
120
0
LINE
8
0
10
200
20
120
11
0
21
120
0
LINE
8
0
10
0
20
120
11
0
21
0
0
CIRCLE
8
0
10
20
20
15
40
4
0
CIRCLE
8
0
10
20
20
33
40
4
0
CIRCLE
8
0
10
20
20
51
40
4
0
CIRCLE
8
0
10
20
20
69
40
4
0
CIRCLE
8
0
10
20
20
87
40
4
0
CIRCLE
8
0
10
20
20
105
40
4
0
CIRCLE
8
0
10
38
20
15
40
4
0
CIRCLE
8
0
10
38
20
33
40
4
0
CIRCLE
8
0
10
38
20
51
40
4
0
CIRCLE
8
0
10
38
20
69
40
4
0
CIRCLE
8
0
10
38
20
87
40
4
0
CIRCLE
8
0
10
38
20
105
40
4
0
CIRCLE
8
0
10
56
20
15
40
4
0
CIRCLE
8
0
10
56
20
33
40
4
0
CIRCLE
8
0
10
56
20
51
40
4
0
CIRCLE
8
0
10
56
20
69
40
4
0
CIRCLE
8
0
10
56
20
87
40
4
0
CIRCLE
8
0
10
56
20
105
40
4
0
CIRCLE
8
0
10
74
20
15
40
4
0
CIRCLE
8
0
10
74
20
33
40
4
0
CIRCLE
8
0
10
74
20
51
40
4
0
CIRCLE
8
0
10
74
20
69
40
4
0
CIRCLE
8
0
10
74
20
87
40
4
0
CIRCLE
8
0
10
74
20
105
40
4
0
CIRCLE
8
0
10
92
20
15
40
4
0
CIRCLE
8
0
10
92
20
33
40
4
0
CIRCLE
8
0
10
92
20
51
40
4
0
CIRCLE
8
0
10
92
20
69
40
4
0
CIRCLE
8
0
10
92
20
87
40
4
0
CIRCLE
8
0
10
92
20
105
40
4
0
CIRCLE
8
0
10
110
20
15
40
4
0
CIRCLE
8
0
10
110
20
33
40
4
0
CIRCLE
8
0
10
110
20
51
40
4
0
CIRCLE
8
0
10
110
20
69
40
4
0
CIRCLE
8
0
10
110
20
87
40
4
0
CIRCLE
8
0
10
110
20
105
40
4
0
CIRCLE
8
0
10
128
20
15
40
4
0
CIRCLE
8
0
10
128
20
33
40
4
0
CIRCLE
8
0
10
128
20
51
40
4
0
CIRCLE
8
0
10
128
20
69
40
4
0
CIRCLE
8
0
10
128
20
87
40
4
0
CIRCLE
8
0
10
128
20
105
40
4
0
CIRCLE
8
0
10
146
20
15
40
4
0
CIRCLE
8
0
10
146
20
33
40
4
0
CIRCLE
8
0
10
146
20
51
40
4
0
CIRCLE
8
0
10
146
20
69
40
4
0
CIRCLE
8
0
10
146
20
87
40
4
0
CIRCLE
8
0
10
146
20
105
40
4
0
CIRCLE
8
0
10
164
20
15
40
4
0
CIRCLE
8
0
10
164
20
33
40
4
0
CIRCLE
8
0
10
164
20
51
40
4
0
CIRCLE
8
0
10
164
20
69
40
4
0
CIRCLE
8
0
10
164
20
87
40
4
0
CIRCLE
8
0
10
164
20
105
40
4
0
CIRCLE
8
0
10
182
20
15
40
4
0
CIRCLE
8
0
10
182
20
33
40
4
0
CIRCLE
8
0
10
182
20
51
40
4
0
CIRCLE
8
0
10
182
20
69
40
4
0
CIRCLE
8
0
10
182
20
87
40
4
0
CIRCLE
8
0
10
182
20
105
40
4
0
ENDSEC
0
EOF
