0
SECTION
2
HEADER
9
$INSUNITS
70
4
0
ENDSEC
0
SECTION
2
ENTITIES
0
LWPOLYLINE
8
0
90
8
70
1
10
6
20
0
10
154
20
0
42
0.41421356237309503
10
160
20
6
10
160
20
84
42
0.41421356237309503
10
154
20
90
10
6
20
90
42
0.41421356237309503
10
0
20
84
10
0
20
6
42
0.41421356237309503
0
LWPOLYLINE
8
0
90
4
70
1
10
30
20
30
10
60
20
30
42
1
10
60
20
45
10
30
20
45
42
1
0
CIRCLE
8
0
10
120
20
25
40
5
0
CIRCLE
8
0
10
120
20
65
40
5
0
LINE
8
DOBRA
10
80
20
0
11
80
21
90
0
LINE
8
GRAVACAO
10
15
20
75
11
45
21
75
0
LINE
8
GRAVACAO
10
15
20
70
11
35
21
70
0
ENDSEC
0
EOF
